<?xml version="1.0" encoding="UTF-8"?>
<svg id="Lager_2" data-name="Lager 2" xmlns="http://www.w3.org/2000/svg" viewBox="0 0 677.89 213.87">
  <defs>
    <style>
      .cls-1 {
        fill: #010101;
      }
    </style>
  </defs>
  <g id="Layer_1" data-name="Layer 1">
    <g>
      <path class="cls-1" d="M107.17,96.89H31.52v70.28H0V3.74h31.52v65.37h75.65V3.74h31.52v163.43h-31.52v-70.28Z"/>
      <path class="cls-1" d="M182.21,163.2c-9.19-5.14-16.27-12.49-21.25-22.06-4.98-9.57-7.47-20.58-7.47-33.04s2.49-23.62,7.47-33.04c4.98-9.42,12.06-16.73,21.25-21.95,9.18-5.21,19.85-7.82,31.99-7.82,13.23,0,24.44,3.04,33.62,9.11,9.18,6.07,15.8,14.44,19.85,25.1,4.05,10.66,4.98,22.92,2.8,36.77h-95.73l8.64-8.87c-.78,12.3,1.59,21.99,7.12,29.07,5.52,7.08,13.5,10.62,23.93,10.62,7,0,12.72-1.52,17.16-4.55s7.27-6.73,8.52-11.09h29.65c-1.56,7.63-4.83,14.4-9.81,20.31-4.98,5.92-11.4,10.59-19.26,14.01-7.86,3.42-16.62,5.14-26.27,5.14-12.3,0-23.04-2.57-32.22-7.7ZM175.44,95.96h74.48l-9.34,7.94c1.24-6.54,1.01-12.57-.7-18.1-1.71-5.52-4.87-9.77-9.46-12.72-4.59-2.96-10.24-4.44-16.93-4.44-6.23,0-11.6,1.4-16.11,4.2-4.52,2.8-7.98,6.89-10.39,12.26-2.42,5.37-3.62,12.02-3.62,19.96l-7.94-9.11Z"/>
      <path class="cls-1" d="M315.53,165.54c0-2.33-.62-4.9-1.87-7.7l-43.43-108.8h31.29l29.42,80.78h.93l26.15-80.78h31.05l-58.84,164.84h-30.82l14.24-40.16c1.24-3.12,1.87-5.84,1.87-8.17Z"/>
      <path class="cls-1" d="M403.43,56.74c5.21-5.14,12.8-7.7,22.76-7.7h38.06v25.22h-38.76v92.92h-29.89v-88.25c0-9.65,2.6-17.04,7.82-22.18Z"/>
      <path class="cls-1" d="M480.37,160.63c-7.47-6.85-11.21-15.72-11.21-26.62s3.54-18.8,10.62-25.1c7.08-6.3,17.31-10,30.7-11.09l27.55-1.87c2.96-.31,5.17-1.2,6.65-2.68,1.48-1.48,2.22-3.85,2.22-7.12,0-5.45-1.98-9.61-5.95-12.49-3.97-2.88-9.46-4.32-16.46-4.32s-12.96,1.56-16.93,4.67c-3.97,3.12-6.27,7.47-6.89,13.07h-28.95c1.4-13.38,6.61-23.7,15.64-30.94,9.03-7.24,21.56-10.86,37.59-10.86s29.18,3.97,38.06,11.91c8.87,7.94,13.31,19.77,13.31,35.49v49.26h9.57v25.22h-11.91c-7.47,0-13.11-2.06-16.93-6.19-3.82-4.12-5.72-10.16-5.72-18.1v-11.44l4.2,1.63c-2.18,12.61-7.24,22.06-15.18,28.37-7.94,6.3-17.82,9.46-29.65,9.46-12.77,0-22.88-3.43-30.35-10.27ZM532.43,143.59c4.67-2.49,8.29-5.87,10.86-10.16,2.57-4.28,3.85-9.07,3.85-14.36v-4.67l-30.35,2.33c-6.07.62-10.55,2.26-13.43,4.9-2.88,2.65-4.32,6.15-4.32,10.51,0,4.83,1.55,8.56,4.67,11.21,3.11,2.65,7.47,3.97,13.08,3.97s10.97-1.24,15.64-3.74Z"/>
      <path class="cls-1" d="M610.06,84.05c-6.93-3.89-12.3-9.26-16.11-16.11-3.82-6.85-5.72-14.55-5.72-23.11s1.9-16.03,5.72-22.88c3.81-6.85,9.18-12.22,16.11-16.11,6.92-3.89,14.67-5.84,23.23-5.84s16.03,1.95,22.88,5.84c6.85,3.89,12.18,9.26,15.99,16.11,3.81,6.85,5.72,14.56,5.72,23.11s-1.91,16.07-5.72,23c-3.82,6.93-9.15,12.3-15.99,16.11-6.85,3.82-14.56,5.72-23.11,5.72s-16.07-1.94-23-5.84ZM650.57,75.3c4.98-2.88,8.83-6.96,11.56-12.26,2.72-5.29,4.09-11.44,4.09-18.44s-1.36-12.84-4.09-17.98c-2.73-5.14-6.58-9.11-11.56-11.91-4.98-2.8-10.82-4.2-17.51-4.2s-12.57,1.4-17.63,4.2c-5.06,2.8-8.95,6.77-11.67,11.91-2.73,5.14-4.09,11.13-4.09,17.98s1.36,13.16,4.09,18.44c2.72,5.29,6.61,9.38,11.67,12.26,5.06,2.88,10.93,4.32,17.63,4.32s12.53-1.44,17.51-4.32ZM614.62,21.48h22.88c4.82,0,8.76,1.25,11.79,3.74,3.04,2.49,4.55,5.84,4.55,10.04,0,2.65-.62,4.9-1.87,6.77-1.25,1.87-3.12,3.27-5.6,4.2,1.87.78,3.39,1.98,4.55,3.62,1.17,1.63,1.9,3.85,2.22,6.65l1.63,11.91h-12.14l-1.4-13.78c-.16-.62-.35-1.09-.58-1.4-.23-.31-.66-.47-1.28-.47h-13.54v15.64h-11.21V21.48ZM640.88,41.68c1.17-1.01,1.75-2.53,1.75-4.55,0-1.71-.62-3.11-1.87-4.2-1.25-1.09-3.04-1.63-5.37-1.63h-9.57v11.91h9.81c2.33,0,4.09-.5,5.25-1.52Z"/>
    </g>
  </g>
</svg>